<?xml version="1.0" encoding="UTF-8"?>
<svg preserveAspectRatio="none" version="1.1" viewBox="0 0 1440 560" xmlns="http://www.w3.org/2000/svg">
<g fill="none" mask="url(#b)">
<rect width="1440" height="560" fill="#0e2a47"/>
<path d="m-57.53 359.53" stroke="#132e65" stroke-width="1.5"/>
<path d="m-57.53 359.53 120.92-12.48" stroke="#132e65" stroke-width="1.5"/>
<path d="m-57.53 359.53 17.21 180.59" stroke="#132e65" stroke-width="1.5"/>
<path d="M-57.53 359.53L67.78 526.61" stroke="#132e65" stroke-width="1.5"/>
<path d="m-57.53 359.53 10.81 296.78" stroke="#132e65" stroke-width="1.5"/>
<path d="m-57.53 359.53 295.35 31.23" stroke="#132e65" stroke-width="1.5"/>
<path d="M-57.53 359.53L242.63 529.3" stroke="#132e65" stroke-width="1.5"/>
<path d="m-40.32 540.12" stroke="#132e65" stroke-width="1.5"/>
<path d="m-40.32 540.12 108.1-13.51" stroke="#132e65" stroke-width="1.5"/>
<path d="m-40.32 540.12-6.4 116.19" stroke="#132e65" stroke-width="1.5"/>
<path d="m-40.32 540.12 97.63 149.7" stroke="#132e65" stroke-width="1.5"/>
<path d="m-46.72 656.31" stroke="#132e65" stroke-width="1.5"/>
<path d="m-46.72 656.31 104.03 33.51" stroke="#132e65" stroke-width="1.5"/>
<path d="m-46.72 656.31 114.5-129.7" stroke="#132e65" stroke-width="1.5"/>
<path d="m-46.72 656.31 263.11 34.01" stroke="#132e65" stroke-width="1.5"/>
<path d="m63.39 347.05" stroke="#132e65" stroke-width="1.5"/>
<path d="m63.39 347.05 4.39 179.56" stroke="#132e65" stroke-width="1.5"/>
<path d="m67.78 526.61" stroke="#132e65" stroke-width="1.5"/>
<path d="m67.78 526.61-10.47 163.21" stroke="#132e65" stroke-width="1.5"/>
<path d="m67.78 526.61 174.85 2.69" stroke="#132e65" stroke-width="1.5"/>
<path d="m57.31 689.82" stroke="#132e65" stroke-width="1.5"/>
<path d="m57.31 689.82 159.08 0.5" stroke="#132e65" stroke-width="1.5"/>
<path d="m237.82 390.76" stroke="#132e65" stroke-width="1.5"/>
<path d="m237.82 390.76 128.54-26.31" stroke="#132e65" stroke-width="1.5"/>
<path d="m237.82 390.76 4.81 138.54" stroke="#132e65" stroke-width="1.5"/>
<path d="m242.63 529.3" stroke="#132e65" stroke-width="1.5"/>
<path d="m242.63 529.3 141.23-9.72" stroke="#132e65" stroke-width="1.5"/>
<path d="m242.63 529.3-26.24 161.02" stroke="#132e65" stroke-width="1.5"/>
<path d="m242.63 529.3 164.26 122.92" stroke="#132e65" stroke-width="1.5"/>
<path d="m216.39 690.32" stroke="#132e65" stroke-width="1.5"/>
<path d="m216.39 690.32 190.5-38.1" stroke="#132e65" stroke-width="1.5"/>
<path d="M216.39 690.32L67.78 526.61" stroke="#132e65" stroke-width="1.5"/>
<path d="m366.36 364.45" stroke="#132e65" stroke-width="1.5"/>
<path d="m366.36 364.45 130.12 6.62" stroke="#132e65" stroke-width="1.5"/>
<path d="m383.86 519.58" stroke="#132e65" stroke-width="1.5"/>
<path d="m383.86 519.58 23.03 132.64" stroke="#132e65" stroke-width="1.5"/>
<path d="m406.89 652.22" stroke="#132e65" stroke-width="1.5"/>
<path d="m406.89 652.22 145.31 7.88" stroke="#132e65" stroke-width="1.5"/>
<path d="m406.89 652.22 121.02-91.85" stroke="#132e65" stroke-width="1.5"/>
<path d="m406.89 652.22 279.64-1.86" stroke="#132e65" stroke-width="1.5"/>
<path d="m496.48 371.07" stroke="#132e65" stroke-width="1.5"/>
<path d="m496.48 371.07-112.62 148.51" stroke="#132e65" stroke-width="1.5"/>
<path d="m496.48 371.07 31.43 189.3" stroke="#132e65" stroke-width="1.5"/>
<path d="m496.48 371.07 208.25 39.1" stroke="#132e65" stroke-width="1.5"/>
<path d="m496.48 371.07 181.33-110.3" stroke="#132e65" stroke-width="1.5"/>
<path d="m527.91 560.37" stroke="#132e65" stroke-width="1.5"/>
<path d="m527.91 560.37 24.29 99.73" stroke="#132e65" stroke-width="1.5"/>
<path d="m527.91 560.37-144.05-40.79" stroke="#132e65" stroke-width="1.5"/>
<path d="m527.91 560.37 153.19-15.74" stroke="#132e65" stroke-width="1.5"/>
<path d="m527.91 560.37 158.62 89.99" stroke="#132e65" stroke-width="1.5"/>
<path d="m552.2 660.1" stroke="#132e65" stroke-width="1.5"/>
<path d="m552.2 660.1 134.33-9.74" stroke="#132e65" stroke-width="1.5"/>
<path d="m552.2 660.1 128.9-115.47" stroke="#132e65" stroke-width="1.5"/>
<path d="m677.81 260.77" stroke="#132e65" stroke-width="1.5"/>
<path d="m677.81 260.77 26.92 149.4" stroke="#132e65" stroke-width="1.5"/>
<path d="m677.81 260.77 171.05-42.95" stroke="#132e65" stroke-width="1.5"/>
<path d="m677.81 260.77 154.72 135.19" stroke="#132e65" stroke-width="1.5"/>
<path d="m704.73 410.17" stroke="#132e65" stroke-width="1.5"/>
<path d="m704.73 410.17 127.8-14.21" stroke="#132e65" stroke-width="1.5"/>
<path d="m704.73 410.17-23.63 134.46" stroke="#132e65" stroke-width="1.5"/>
<path d="m704.73 410.17-176.82 150.2" stroke="#132e65" stroke-width="1.5"/>
<path d="m681.1 544.63" stroke="#132e65" stroke-width="1.5"/>
<path d="m681.1 544.63 5.43 105.73" stroke="#132e65" stroke-width="1.5"/>
<path d="m686.53 650.36" stroke="#132e65" stroke-width="1.5"/>
<path d="m686.53 650.36 152.88 40.6" stroke="#132e65" stroke-width="1.5"/>
<path d="m686.53 650.36 18.2-240.19" stroke="#132e65" stroke-width="1.5"/>
<path d="m686.53 650.36 255.49 31.73" stroke="#132e65" stroke-width="1.5"/>
<path d="m848.86 217.82" stroke="#132e65" stroke-width="1.5"/>
<path d="m848.86 217.82 132.82 40.65" stroke="#132e65" stroke-width="1.5"/>
<path d="m832.53 395.96" stroke="#132e65" stroke-width="1.5"/>
<path d="m832.53 395.96 137.95-6.23" stroke="#132e65" stroke-width="1.5"/>
<path d="m832.53 395.96 16.33-178.14" stroke="#132e65" stroke-width="1.5"/>
<path d="m832.53 395.96 147.63 137.55" stroke="#132e65" stroke-width="1.5"/>
<path d="m832.53 395.96 149.15-137.49" stroke="#132e65" stroke-width="1.5"/>
<path d="m839.41 690.96" stroke="#132e65" stroke-width="1.5"/>
<path d="m839.41 690.96 102.61-8.87" stroke="#132e65" stroke-width="1.5"/>
<path d="m839.41 690.96 140.75-157.45" stroke="#132e65" stroke-width="1.5"/>
<path d="M839.41 690.96L681.1 544.63" stroke="#132e65" stroke-width="1.5"/>
<path d="m839.41 690.96 267.92-18.41" stroke="#132e65" stroke-width="1.5"/>
<path d="m999.3-69.19" stroke="#132e65" stroke-width="1.5"/>
<path d="m999.3-69.19 124.95-6" stroke="#132e65" stroke-width="1.5"/>
<path d="m999.3-69.19 95.88 127.15" stroke="#132e65" stroke-width="1.5"/>
<path d="m999.3-69.19-25.59 160.47" stroke="#132e65" stroke-width="1.5"/>
<path d="m999.3-69.19 296.36 14.05" stroke="#132e65" stroke-width="1.5"/>
<path d="m999.3-69.19-150.44 287.01" stroke="#132e65" stroke-width="1.5"/>
<path d="m999.3-69.19-17.62 327.66" stroke="#132e65" stroke-width="1.5"/>
<path d="m973.71 91.28" stroke="#132e65" stroke-width="1.5"/>
<path d="m973.71 91.28 121.47-33.32" stroke="#132e65" stroke-width="1.5"/>
<path d="m973.71 91.28 7.97 167.19" stroke="#132e65" stroke-width="1.5"/>
<path d="m973.71 91.28-124.85 126.54" stroke="#132e65" stroke-width="1.5"/>
<path d="m973.71 91.28 123.39 160.07" stroke="#132e65" stroke-width="1.5"/>
<path d="m973.71 91.28 150.54-166.47" stroke="#132e65" stroke-width="1.5"/>
<path d="m981.68 258.47" stroke="#132e65" stroke-width="1.5"/>
<path d="m981.68 258.47 115.42-7.12" stroke="#132e65" stroke-width="1.5"/>
<path d="m981.68 258.47-11.2 131.26" stroke="#132e65" stroke-width="1.5"/>
<path d="m970.48 389.73" stroke="#132e65" stroke-width="1.5"/>
<path d="m980.16 533.51" stroke="#132e65" stroke-width="1.5"/>
<path d="m980.16 533.51-9.68-143.78" stroke="#132e65" stroke-width="1.5"/>
<path d="m980.16 533.51-38.14 148.58" stroke="#132e65" stroke-width="1.5"/>
<path d="m980.16 533.51 171.7 17.78" stroke="#132e65" stroke-width="1.5"/>
<path d="m980.16 533.51 127.17 139.04" stroke="#132e65" stroke-width="1.5"/>
<path d="m942.02 682.09" stroke="#132e65" stroke-width="1.5"/>
<path d="m942.02 682.09 165.31-9.54" stroke="#132e65" stroke-width="1.5"/>
<path d="m942.02 682.09 209.84-130.8" stroke="#132e65" stroke-width="1.5"/>
<path d="m1124.2-75.19" stroke="#132e65" stroke-width="1.5"/>
<path d="m1124.2-75.19-29.07 133.15" stroke="#132e65" stroke-width="1.5"/>
<path d="m1124.2-75.19 171.41 20.05" stroke="#132e65" stroke-width="1.5"/>
<path d="m1124.2-75.19 186.14 113.32" stroke="#132e65" stroke-width="1.5"/>
<path d="m1095.2 57.96" stroke="#132e65" stroke-width="1.5"/>
<path d="m1095.2 57.96 1.92 193.39" stroke="#132e65" stroke-width="1.5"/>
<path d="m1097.1 251.35" stroke="#132e65" stroke-width="1.5"/>
<path d="m1097.1 251.35 19.58 150.39" stroke="#132e65" stroke-width="1.5"/>
<path d="m1097.1 251.35 166.88-55.44" stroke="#132e65" stroke-width="1.5"/>
<path d="m1097.1 251.35-126.62 138.38" stroke="#132e65" stroke-width="1.5"/>
<path d="m1097.1 251.35 150.1 122.89" stroke="#132e65" stroke-width="1.5"/>
<path d="m1116.7 401.74" stroke="#132e65" stroke-width="1.5"/>
<path d="m1116.7 401.74 130.52-27.5" stroke="#132e65" stroke-width="1.5"/>
<path d="m1116.7 401.74-146.2-12.01" stroke="#132e65" stroke-width="1.5"/>
<path d="m1116.7 401.74 35.18 149.55" stroke="#132e65" stroke-width="1.5"/>
<path d="m1151.9 551.29" stroke="#132e65" stroke-width="1.5"/>
<path d="m1151.9 551.29-44.53 121.26" stroke="#132e65" stroke-width="1.5"/>
<path d="m1151.9 551.29 151.23-32.31" stroke="#132e65" stroke-width="1.5"/>
<path d="m1151.9 551.29 123.08 118.31" stroke="#132e65" stroke-width="1.5"/>
<path d="m1151.9 551.29 95.34-177.05" stroke="#132e65" stroke-width="1.5"/>
<path d="m1107.3 672.55" stroke="#132e65" stroke-width="1.5"/>
<path d="m1107.3 672.55 167.61-2.95" stroke="#132e65" stroke-width="1.5"/>
<path d="m1295.7-55.14" stroke="#132e65" stroke-width="1.5"/>
<path d="m1295.7-55.14 14.73 93.27" stroke="#132e65" stroke-width="1.5"/>
<path d="m1295.7-55.14 94.49 139.29" stroke="#132e65" stroke-width="1.5"/>
<path d="m1295.7-55.14-200.48 113.1" stroke="#132e65" stroke-width="1.5"/>
<path d="m1310.4 38.13" stroke="#132e65" stroke-width="1.5"/>
<path d="m1310.4 38.13 79.76 46.02" stroke="#132e65" stroke-width="1.5"/>
<path d="m1310.4 38.13-46.41 157.78" stroke="#132e65" stroke-width="1.5"/>
<path d="m1264 195.91" stroke="#132e65" stroke-width="1.5"/>
<path d="m1264 195.91 146.5 13.66" stroke="#132e65" stroke-width="1.5"/>
<path d="m1264 195.91 126.17-111.76" stroke="#132e65" stroke-width="1.5"/>
<path d="m1247.2 374.24" stroke="#132e65" stroke-width="1.5"/>
<path d="m1247.2 374.24 152.33 14.49" stroke="#132e65" stroke-width="1.5"/>
<path d="m1247.2 374.24 55.89 144.74" stroke="#132e65" stroke-width="1.5"/>
<path d="m1303.1 518.98" stroke="#132e65" stroke-width="1.5"/>
<path d="m1303.1 518.98 87.62-12.41" stroke="#132e65" stroke-width="1.5"/>
<path d="m1303.1 518.98-28.15 150.62" stroke="#132e65" stroke-width="1.5"/>
<path d="m1274.9 669.6" stroke="#132e65" stroke-width="1.5"/>
<path d="m1274.9 669.6 117.33 31.46" stroke="#132e65" stroke-width="1.5"/>
<path d="m1274.9 669.6 115.77-163.03" stroke="#132e65" stroke-width="1.5"/>
<path d="m1274.9 669.6-27.74-295.36" stroke="#132e65" stroke-width="1.5"/>
<path d="m1390.2 84.15" stroke="#132e65" stroke-width="1.5"/>
<path d="m1390.2 84.15 20.33 125.42" stroke="#132e65" stroke-width="1.5"/>
<path d="m1410.5 209.57" stroke="#132e65" stroke-width="1.5"/>
<path d="m1399.5 388.73" stroke="#132e65" stroke-width="1.5"/>
<path d="m1399.5 388.73-8.82 117.84" stroke="#132e65" stroke-width="1.5"/>
<path d="m1399.5 388.73-96.44 130.25" stroke="#132e65" stroke-width="1.5"/>
<path d="m1399.5 388.73 10.95-179.16" stroke="#132e65" stroke-width="1.5"/>
<path d="m1390.7 506.57" stroke="#132e65" stroke-width="1.5"/>
<path d="m1390.7 506.57 1.56 194.49" stroke="#132e65" stroke-width="1.5"/>
<path d="m1390.7 506.57-143.51-132.33" stroke="#132e65" stroke-width="1.5"/>
<path d="m1390.7 506.57 200.96-14.28" stroke="#132e65" stroke-width="1.5"/>
<path d="m1392.3 701.06" stroke="#132e65" stroke-width="1.5"/>
<path d="m1392.3 701.06 198.85-1.84" stroke="#132e65" stroke-width="1.5"/>
<path d="m1392.3 701.06-89.18-182.08" stroke="#132e65" stroke-width="1.5"/>
<path d="m1559.1 58.61" stroke="#132e65" stroke-width="1.5"/>
<path d="m1559.1 58.61 8.48 169.14" stroke="#132e65" stroke-width="1.5"/>
<path d="m1559.1 58.61-168.95 25.54" stroke="#132e65" stroke-width="1.5"/>
<path d="m1559.1 58.61-148.62 150.96" stroke="#132e65" stroke-width="1.5"/>
<path d="m1559.1 58.61-248.71-20.48" stroke="#132e65" stroke-width="1.5"/>
<path d="m1559.1 58.61-263.44-113.75" stroke="#132e65" stroke-width="1.5"/>
<path d="m1567.6 227.75" stroke="#132e65" stroke-width="1.5"/>
<path d="m1567.6 227.75 9.57 127.07" stroke="#132e65" stroke-width="1.5"/>
<path d="m1567.6 227.75-157.1-18.18" stroke="#132e65" stroke-width="1.5"/>
<path d="m1567.6 227.75-177.43-143.6" stroke="#132e65" stroke-width="1.5"/>
<path d="m1567.6 227.75-168.05 160.98" stroke="#132e65" stroke-width="1.5"/>
<path d="m1567.6 227.75 24.09 264.54" stroke="#132e65" stroke-width="1.5"/>
<path d="m1577.2 354.82" stroke="#132e65" stroke-width="1.5"/>
<path d="m1577.2 354.82 14.52 137.47" stroke="#132e65" stroke-width="1.5"/>
<path d="m1591.7 492.29" stroke="#132e65" stroke-width="1.5"/>
<path d="m1591.7 492.29-0.55 206.93" stroke="#132e65" stroke-width="1.5"/>
<path d="m1591.7 492.29-192.14-103.56" stroke="#132e65" stroke-width="1.5"/>
<path d="m1591.1 699.22" stroke="#132e65" stroke-width="1.5"/>
<path d="m1591.1 699.22-200.41-192.65" stroke="#132e65" stroke-width="1.5"/>
<path d="m1591.1 699.22-316.18-29.62" stroke="#132e65" stroke-width="1.5"/>
<circle cx="-57.53" cy="359.53" r="5" fill="#132e65"/>
<circle cx="-40.32" cy="540.12" r="5" fill="#132e65"/>
<circle cx="-46.72" cy="656.31" r="5" fill="#132e65"/>
<circle cx="63.39" cy="347.05" r="5" fill="#132e65"/>
<circle cx="67.78" cy="526.61" r="5" fill="#132e65"/>
<circle cx="57.31" cy="689.82" r="5" fill="#132e65"/>
<circle cx="237.82" cy="390.76" r="5" fill="#132e65"/>
<circle cx="242.63" cy="529.3" r="5" fill="#132e65"/>
<circle cx="216.39" cy="690.32" r="5" fill="#132e65"/>
<circle cx="366.36" cy="364.45" r="5" fill="#132e65"/>
<circle cx="383.86" cy="519.58" r="5" fill="#132e65"/>
<circle cx="406.89" cy="652.22" r="5" fill="#132e65"/>
<circle cx="496.48" cy="371.07" r="5" fill="#132e65"/>
<circle cx="527.91" cy="560.37" r="5" fill="#132e65"/>
<circle cx="552.2" cy="660.1" r="5" fill="#132e65"/>
<circle cx="677.81" cy="260.77" r="5" fill="#132e65"/>
<circle cx="704.73" cy="410.17" r="5" fill="#132e65"/>
<circle cx="681.1" cy="544.63" r="5" fill="#132e65"/>
<circle cx="686.53" cy="650.36" r="5" fill="#132e65"/>
<circle cx="848.86" cy="217.82" r="5" fill="#132e65"/>
<circle cx="832.53" cy="395.96" r="5" fill="#132e65"/>
<circle cx="839.41" cy="690.96" r="5" fill="#132e65"/>
<circle cx="999.3" cy="-69.19" r="5" fill="#132e65"/>
<circle cx="973.71" cy="91.28" r="5" fill="#132e65"/>
<circle cx="981.68" cy="258.47" r="5" fill="#132e65"/>
<circle cx="970.48" cy="389.73" r="5" fill="#132e65"/>
<circle cx="980.16" cy="533.51" r="5" fill="#132e65"/>
<circle cx="942.02" cy="682.09" r="5" fill="#132e65"/>
<circle cx="1124.2" cy="-75.19" r="5" fill="#132e65"/>
<circle cx="1095.2" cy="57.96" r="5" fill="#132e65"/>
<circle cx="1097.1" cy="251.35" r="5" fill="#132e65"/>
<circle cx="1116.7" cy="401.74" r="5" fill="#132e65"/>
<circle cx="1151.9" cy="551.29" r="5" fill="#132e65"/>
<circle cx="1107.3" cy="672.55" r="5" fill="#132e65"/>
<circle cx="1295.7" cy="-55.14" r="5" fill="#132e65"/>
<circle cx="1310.4" cy="38.13" r="5" fill="#132e65"/>
<circle cx="1264" cy="195.91" r="5" fill="#132e65"/>
<circle cx="1247.2" cy="374.24" r="5" fill="#132e65"/>
<circle cx="1303.1" cy="518.98" r="5" fill="#132e65"/>
<circle cx="1274.9" cy="669.6" r="5" fill="#132e65"/>
<circle cx="1390.2" cy="84.15" r="5" fill="#132e65"/>
<circle cx="1410.5" cy="209.57" r="5" fill="#132e65"/>
<circle cx="1399.5" cy="388.73" r="5" fill="#132e65"/>
<circle cx="1390.7" cy="506.57" r="5" fill="#132e65"/>
<circle cx="1392.3" cy="701.06" r="5" fill="#132e65"/>
<circle cx="1559.1" cy="58.61" r="5" fill="#132e65"/>
<circle cx="1567.6" cy="227.75" r="5" fill="#132e65"/>
<circle cx="1577.2" cy="354.82" r="5" fill="#132e65"/>
<circle cx="1591.7" cy="492.29" r="5" fill="#132e65"/>
<circle cx="1591.1" cy="699.22" r="5" fill="#132e65"/>
<path d="m199.7 664.22" stroke="hsl(228.5, 77.2%, 51.5%)" stroke-width="1.5"/>
<path d="m199.7 664.22-97.05-7.81" stroke="hsl(228.5, 77.2%, 51.5%)" stroke-width="1.5"/>
<path d="m199.7 664.22 41.86-128.01" stroke="hsl(228.5, 77.2%, 51.5%)" stroke-width="1.5"/>
<path d="m199.7 664.22 162.88 28.51" stroke="hsl(228.5, 77.2%, 51.5%)" stroke-width="1.5"/>
<path d="M199.7 664.22L63.94 556.24" stroke="hsl(228.5, 77.2%, 51.5%)" stroke-width="1.5"/>
<path d="m199.7 664.22-246.07-102.19" stroke="hsl(228.5, 77.2%, 51.5%)" stroke-width="1.5"/>
<path d="m362.58 692.73" stroke="hsl(228.5, 77.2%, 51.5%)" stroke-width="1.5"/>
<path d="m641.28 499.09" stroke="hsl(228.5, 77.2%, 51.5%)" stroke-width="1.5"/>
<path d="m641.28 499.09-96.05-0.56" stroke="hsl(228.5, 77.2%, 51.5%)" stroke-width="1.5"/>
<path d="m641.28 499.09 160.44 54.47" stroke="hsl(228.5, 77.2%, 51.5%)" stroke-width="1.5"/>
<path d="m641.28 499.09-107.94 174.07" stroke="hsl(228.5, 77.2%, 51.5%)" stroke-width="1.5"/>
<path d="m641.28 499.09 184.65-115.82" stroke="hsl(228.5, 77.2%, 51.5%)" stroke-width="1.5"/>
<path d="m1087.8 494.95" stroke="hsl(228.5, 77.2%, 51.5%)" stroke-width="1.5"/>
<path d="m1087.8 494.95-118.74 7.67" stroke="hsl(228.5, 77.2%, 51.5%)" stroke-width="1.5"/>
<path d="m1087.8 494.95 60.81-148.18" stroke="hsl(228.5, 77.2%, 51.5%)" stroke-width="1.5"/>
<path d="m1087.8 494.95-123-126.86" stroke="hsl(228.5, 77.2%, 51.5%)" stroke-width="1.5"/>
<path d="m1087.8 494.95 2.03 180.99" stroke="hsl(228.5, 77.2%, 51.5%)" stroke-width="1.5"/>
<path d="m1087.8 494.95 188.75 52.53" stroke="hsl(228.5, 77.2%, 51.5%)" stroke-width="1.5"/>
<path d="m1087.8 494.95 220.22-86.89" stroke="hsl(228.5, 77.2%, 51.5%)" stroke-width="1.5"/>
<path d="m1276.6 547.48" stroke="hsl(228.5, 77.2%, 51.5%)" stroke-width="1.5"/>
<path d="m1276.6 547.48 23.63 139.19" stroke="hsl(228.5, 77.2%, 51.5%)" stroke-width="1.5"/>
<path d="m1276.6 547.48 31.47-139.42" stroke="hsl(228.5, 77.2%, 51.5%)" stroke-width="1.5"/>
<path d="m1276.6 547.48 145.36-2.42" stroke="hsl(228.5, 77.2%, 51.5%)" stroke-width="1.5"/>
<path d="m1388.1 112.24" stroke="hsl(228.5, 77.2%, 51.5%)" stroke-width="1.5"/>
<path d="m1388.1 112.24-83.11-61.84" stroke="hsl(228.5, 77.2%, 51.5%)" stroke-width="1.5"/>
<path d="m1388.1 112.24 65.28 118.6" stroke="hsl(228.5, 77.2%, 51.5%)" stroke-width="1.5"/>
<path d="m1388.1 112.24 43.54-152.9" stroke="hsl(228.5, 77.2%, 51.5%)" stroke-width="1.5"/>
<path d="m1388.1 112.24-137.5 97.44" stroke="hsl(228.5, 77.2%, 51.5%)" stroke-width="1.5"/>
<path d="m-46.37 562.03" stroke="hsl(228.5, 77.2%, 51.5%)" stroke-width="1.5"/>
<path d="m-46.37 562.03 110.31-5.79" stroke="hsl(228.5, 77.2%, 51.5%)" stroke-width="1.5"/>
<path d="m-46.37 562.03-48.08 117.94" stroke="hsl(228.5, 77.2%, 51.5%)" stroke-width="1.5"/>
<path d="m-46.37 562.03 149.02 94.38" stroke="hsl(228.5, 77.2%, 51.5%)" stroke-width="1.5"/>
<path d="m-94.45 679.97" stroke="hsl(228.5, 77.2%, 51.5%)" stroke-width="1.5"/>
<path d="m-94.45 679.97 197.1-23.56" stroke="hsl(228.5, 77.2%, 51.5%)" stroke-width="1.5"/>
<path d="M-94.45 679.97L63.94 556.24" stroke="hsl(228.5, 77.2%, 51.5%)" stroke-width="1.5"/>
<path d="m-94.45 679.97 294.15-15.75" stroke="hsl(228.5, 77.2%, 51.5%)" stroke-width="1.5"/>
<path d="m-94.45 679.97 336.01-143.76" stroke="hsl(228.5, 77.2%, 51.5%)" stroke-width="1.5"/>
<path d="m-94.45 679.97 457.03 12.76" stroke="hsl(228.5, 77.2%, 51.5%)" stroke-width="1.5"/>
<path d="m63.94 556.24" stroke="hsl(228.5, 77.2%, 51.5%)" stroke-width="1.5"/>
<path d="m63.94 556.24 38.71 100.17" stroke="hsl(228.5, 77.2%, 51.5%)" stroke-width="1.5"/>
<path d="m63.94 556.24 177.62-20.03" stroke="hsl(228.5, 77.2%, 51.5%)" stroke-width="1.5"/>
<path d="m63.94 556.24 298.64 136.49" stroke="hsl(228.5, 77.2%, 51.5%)" stroke-width="1.5"/>
<path d="m102.65 656.41" stroke="hsl(228.5, 77.2%, 51.5%)" stroke-width="1.5"/>
<path d="m241.56 536.21" stroke="hsl(228.5, 77.2%, 51.5%)" stroke-width="1.5"/>
<path d="m241.56 536.21-138.91 120.2" stroke="hsl(228.5, 77.2%, 51.5%)" stroke-width="1.5"/>
<path d="m241.56 536.21 121.02 156.52" stroke="hsl(228.5, 77.2%, 51.5%)" stroke-width="1.5"/>
<path d="m241.56 536.21-287.93 25.82" stroke="hsl(228.5, 77.2%, 51.5%)" stroke-width="1.5"/>
<path d="m241.56 536.21 303.67-37.68" stroke="hsl(228.5, 77.2%, 51.5%)" stroke-width="1.5"/>
<path d="m545.23 498.53" stroke="hsl(228.5, 77.2%, 51.5%)" stroke-width="1.5"/>
<path d="m545.23 498.53-11.89 174.63" stroke="hsl(228.5, 77.2%, 51.5%)" stroke-width="1.5"/>
<path d="m545.23 498.53 256.49 55.03" stroke="hsl(228.5, 77.2%, 51.5%)" stroke-width="1.5"/>
<path d="m545.23 498.53-182.65 194.2" stroke="hsl(228.5, 77.2%, 51.5%)" stroke-width="1.5"/>
<path d="m533.34 673.16" stroke="hsl(228.5, 77.2%, 51.5%)" stroke-width="1.5"/>
<path d="m533.34 673.16-170.76 19.57" stroke="hsl(228.5, 77.2%, 51.5%)" stroke-width="1.5"/>
<path d="m533.34 673.16 290.43 38.77" stroke="hsl(228.5, 77.2%, 51.5%)" stroke-width="1.5"/>
<path d="m825.93 383.27" stroke="hsl(228.5, 77.2%, 51.5%)" stroke-width="1.5"/>
<path d="m825.93 383.27 138.92-15.18" stroke="hsl(228.5, 77.2%, 51.5%)" stroke-width="1.5"/>
<path d="m825.93 383.27-24.21 170.29" stroke="hsl(228.5, 77.2%, 51.5%)" stroke-width="1.5"/>
<path d="m801.72 553.56" stroke="hsl(228.5, 77.2%, 51.5%)" stroke-width="1.5"/>
<path d="m801.72 553.56 22.05 158.37" stroke="hsl(228.5, 77.2%, 51.5%)" stroke-width="1.5"/>
<path d="m801.72 553.56 167.39-50.94" stroke="hsl(228.5, 77.2%, 51.5%)" stroke-width="1.5"/>
<path d="m801.72 553.56 163.13-185.47" stroke="hsl(228.5, 77.2%, 51.5%)" stroke-width="1.5"/>
<path d="m823.77 711.93" stroke="hsl(228.5, 77.2%, 51.5%)" stroke-width="1.5"/>
<path d="m823.77 711.93 145.34-209.31" stroke="hsl(228.5, 77.2%, 51.5%)" stroke-width="1.5"/>
<path d="m823.77 711.93 266.11-35.99" stroke="hsl(228.5, 77.2%, 51.5%)" stroke-width="1.5"/>
<path d="m823.77 711.93-182.49-212.84" stroke="hsl(228.5, 77.2%, 51.5%)" stroke-width="1.5"/>
<path d="m1010.5 218.69" stroke="hsl(228.5, 77.2%, 51.5%)" stroke-width="1.5"/>
<path d="m1010.5 218.69 146.28 23.36" stroke="hsl(228.5, 77.2%, 51.5%)" stroke-width="1.5"/>
<path d="m1010.5 218.69-45.65 149.4" stroke="hsl(228.5, 77.2%, 51.5%)" stroke-width="1.5"/>
<path d="m1010.5 218.69 138.16 128.08" stroke="hsl(228.5, 77.2%, 51.5%)" stroke-width="1.5"/>
<path d="m1010.5 218.69 240.06-9.01" stroke="hsl(228.5, 77.2%, 51.5%)" stroke-width="1.5"/>
<path d="m964.85 368.09" stroke="hsl(228.5, 77.2%, 51.5%)" stroke-width="1.5"/>
<path d="m964.85 368.09 4.26 134.53" stroke="hsl(228.5, 77.2%, 51.5%)" stroke-width="1.5"/>
<path d="m964.85 368.09 183.81-21.32" stroke="hsl(228.5, 77.2%, 51.5%)" stroke-width="1.5"/>
<path d="m964.85 368.09 191.93-126.04" stroke="hsl(228.5, 77.2%, 51.5%)" stroke-width="1.5"/>
<path d="m969.11 502.62" stroke="hsl(228.5, 77.2%, 51.5%)" stroke-width="1.5"/>
<path d="m969.11 502.62-143.18-119.35" stroke="hsl(228.5, 77.2%, 51.5%)" stroke-width="1.5"/>
<path d="m969.11 502.62 120.77 173.32" stroke="hsl(228.5, 77.2%, 51.5%)" stroke-width="1.5"/>
<path d="m1156.8 242.05" stroke="hsl(228.5, 77.2%, 51.5%)" stroke-width="1.5"/>
<path d="m1156.8 242.05 93.78-32.37" stroke="hsl(228.5, 77.2%, 51.5%)" stroke-width="1.5"/>
<path d="m1156.8 242.05-8.12 104.72" stroke="hsl(228.5, 77.2%, 51.5%)" stroke-width="1.5"/>
<path d="m1156.8 242.05 151.29 166.01" stroke="hsl(228.5, 77.2%, 51.5%)" stroke-width="1.5"/>
<path d="m1148.7 346.77" stroke="hsl(228.5, 77.2%, 51.5%)" stroke-width="1.5"/>
<path d="m1089.9 675.94" stroke="hsl(228.5, 77.2%, 51.5%)" stroke-width="1.5"/>
<path d="m1089.9 675.94 210.35 10.73" stroke="hsl(228.5, 77.2%, 51.5%)" stroke-width="1.5"/>
<path d="m1089.9 675.94 186.72-128.46" stroke="hsl(228.5, 77.2%, 51.5%)" stroke-width="1.5"/>
<path d="m1089.9 675.94-288.16-122.38" stroke="hsl(228.5, 77.2%, 51.5%)" stroke-width="1.5"/>
<path d="m1299.1-112.19" stroke="hsl(228.5, 77.2%, 51.5%)" stroke-width="1.5"/>
<path d="m1299.1-112.19 132.49 71.53" stroke="hsl(228.5, 77.2%, 51.5%)" stroke-width="1.5"/>
<path d="m1299.1-112.19 5.84 162.59" stroke="hsl(228.5, 77.2%, 51.5%)" stroke-width="1.5"/>
<path d="m1299.1-112.19 88.95 224.43" stroke="hsl(228.5, 77.2%, 51.5%)" stroke-width="1.5"/>
<path d="m1299.1-112.19 278.84 32.96" stroke="hsl(228.5, 77.2%, 51.5%)" stroke-width="1.5"/>
<path d="m1299.1-112.19-48.55 321.87" stroke="hsl(228.5, 77.2%, 51.5%)" stroke-width="1.5"/>
<path d="m1305 50.4" stroke="hsl(228.5, 77.2%, 51.5%)" stroke-width="1.5"/>
<path d="m1305 50.4 126.65-91.06" stroke="hsl(228.5, 77.2%, 51.5%)" stroke-width="1.5"/>
<path d="m1250.6 209.68" stroke="hsl(228.5, 77.2%, 51.5%)" stroke-width="1.5"/>
<path d="m1250.6 209.68 54.39-159.28" stroke="hsl(228.5, 77.2%, 51.5%)" stroke-width="1.5"/>
<path d="m1250.6 209.68-101.9 137.09" stroke="hsl(228.5, 77.2%, 51.5%)" stroke-width="1.5"/>
<path d="m1308.1 408.06" stroke="hsl(228.5, 77.2%, 51.5%)" stroke-width="1.5"/>
<path d="m1308.1 408.06 133.38-50.45" stroke="hsl(228.5, 77.2%, 51.5%)" stroke-width="1.5"/>
<path d="m1308.1 408.06-159.41-61.29" stroke="hsl(228.5, 77.2%, 51.5%)" stroke-width="1.5"/>
<path d="m1308.1 408.06 113.89 137" stroke="hsl(228.5, 77.2%, 51.5%)" stroke-width="1.5"/>
<path d="m1308.1 408.06-57.51-198.38" stroke="hsl(228.5, 77.2%, 51.5%)" stroke-width="1.5"/>
<path d="m1300.2 686.67" stroke="hsl(228.5, 77.2%, 51.5%)" stroke-width="1.5"/>
<path d="m1300.2 686.67 130.07 3.47" stroke="hsl(228.5, 77.2%, 51.5%)" stroke-width="1.5"/>
<path d="m1431.6-40.66" stroke="hsl(228.5, 77.2%, 51.5%)" stroke-width="1.5"/>
<path d="m1431.6-40.66 146.35-38.57" stroke="hsl(228.5, 77.2%, 51.5%)" stroke-width="1.5"/>
<path d="m1453.3 230.84" stroke="hsl(228.5, 77.2%, 51.5%)" stroke-width="1.5"/>
<path d="m1453.3 230.84-11.89 126.77" stroke="hsl(228.5, 77.2%, 51.5%)" stroke-width="1.5"/>
<path d="m1441.4 357.61" stroke="hsl(228.5, 77.2%, 51.5%)" stroke-width="1.5"/>
<path d="m1441.4 357.61 135.23-11.18" stroke="hsl(228.5, 77.2%, 51.5%)" stroke-width="1.5"/>
<path d="m1422 545.06" stroke="hsl(228.5, 77.2%, 51.5%)" stroke-width="1.5"/>
<path d="m1422 545.06 8.34 145.08" stroke="hsl(228.5, 77.2%, 51.5%)" stroke-width="1.5"/>
<path d="m1422 545.06 176.53 8.48" stroke="hsl(228.5, 77.2%, 51.5%)" stroke-width="1.5"/>
<path d="m1430.3 690.14" stroke="hsl(228.5, 77.2%, 51.5%)" stroke-width="1.5"/>
<path d="m1430.3 690.14-153.7-142.66" stroke="hsl(228.5, 77.2%, 51.5%)" stroke-width="1.5"/>
<path d="m1578-79.23" stroke="hsl(228.5, 77.2%, 51.5%)" stroke-width="1.5"/>
<path d="m1604.6 76.82" stroke="hsl(228.5, 77.2%, 51.5%)" stroke-width="1.5"/>
<path d="m1604.6 76.82-3.18 138.56" stroke="hsl(228.5, 77.2%, 51.5%)" stroke-width="1.5"/>
<path d="m1604.6 76.82-26.68-156.05" stroke="hsl(228.5, 77.2%, 51.5%)" stroke-width="1.5"/>
<path d="m1604.6 76.82-173.03-117.48" stroke="hsl(228.5, 77.2%, 51.5%)" stroke-width="1.5"/>
<path d="m1604.6 76.82-151.29 154.02" stroke="hsl(228.5, 77.2%, 51.5%)" stroke-width="1.5"/>
<path d="m1604.6 76.82-216.57 35.42" stroke="hsl(228.5, 77.2%, 51.5%)" stroke-width="1.5"/>
<path d="m1604.6 76.82-27.95 269.61" stroke="hsl(228.5, 77.2%, 51.5%)" stroke-width="1.5"/>
<path d="m1601.4 215.38" stroke="hsl(228.5, 77.2%, 51.5%)" stroke-width="1.5"/>
<path d="m1601.4 215.38-24.77 131.05" stroke="hsl(228.5, 77.2%, 51.5%)" stroke-width="1.5"/>
<path d="m1601.4 215.38-148.11 15.46" stroke="hsl(228.5, 77.2%, 51.5%)" stroke-width="1.5"/>
<path d="m1601.4 215.38-160 142.23" stroke="hsl(228.5, 77.2%, 51.5%)" stroke-width="1.5"/>
<path d="m1576.7 346.43" stroke="hsl(228.5, 77.2%, 51.5%)" stroke-width="1.5"/>
<path d="m1576.7 346.43-123.34-115.59" stroke="hsl(228.5, 77.2%, 51.5%)" stroke-width="1.5"/>
<path d="m1576.7 346.43 21.81 207.11" stroke="hsl(228.5, 77.2%, 51.5%)" stroke-width="1.5"/>
<path d="m1576.7 346.43-154.72 198.63" stroke="hsl(228.5, 77.2%, 51.5%)" stroke-width="1.5"/>
<path d="m1598.5 553.54" stroke="hsl(228.5, 77.2%, 51.5%)" stroke-width="1.5"/>
<path d="m1598.5 553.54-168.19 136.6" stroke="hsl(228.5, 77.2%, 51.5%)" stroke-width="1.5"/>
<circle cx="199.7" cy="664.22" r="25" fill="url(#a)"/>
<circle cx="362.58" cy="692.73" r="25" fill="url(#a)"/>
<circle cx="641.28" cy="499.09" r="25" fill="url(#a)"/>
<circle cx="1087.8" cy="494.95" r="25" fill="url(#a)"/>
<circle cx="1276.6" cy="547.48" r="25" fill="url(#a)"/>
<circle cx="1388.1" cy="112.24" r="25" fill="url(#a)"/>
<circle cx="-46.37" cy="562.03" r="5" fill="#8b9ad9"/>
<circle cx="-94.45" cy="679.97" r="5" fill="#8b9ad9"/>
<circle cx="63.94" cy="556.24" r="5" fill="#8b9ad9"/>
<circle cx="102.65" cy="656.41" r="5" fill="#8b9ad9"/>
<circle cx="241.56" cy="536.21" r="5" fill="#8b9ad9"/>
<circle cx="545.23" cy="498.53" r="5" fill="#8b9ad9"/>
<circle cx="533.34" cy="673.16" r="5" fill="#8b9ad9"/>
<circle cx="825.93" cy="383.27" r="5" fill="#8b9ad9"/>
<circle cx="801.72" cy="553.56" r="5" fill="#8b9ad9"/>
<circle cx="823.77" cy="711.93" r="5" fill="#8b9ad9"/>
<circle cx="1010.5" cy="218.69" r="5" fill="#8b9ad9"/>
<circle cx="964.85" cy="368.09" r="5" fill="#8b9ad9"/>
<circle cx="969.11" cy="502.62" r="5" fill="#8b9ad9"/>
<circle cx="1156.8" cy="242.05" r="5" fill="#8b9ad9"/>
<circle cx="1148.7" cy="346.77" r="5" fill="#8b9ad9"/>
<circle cx="1089.9" cy="675.94" r="5" fill="#8b9ad9"/>
<circle cx="1299.1" cy="-112.19" r="5" fill="#8b9ad9"/>
<circle cx="1305" cy="50.4" r="5" fill="#8b9ad9"/>
<circle cx="1250.6" cy="209.68" r="5" fill="#8b9ad9"/>
<circle cx="1308.1" cy="408.06" r="5" fill="#8b9ad9"/>
<circle cx="1300.2" cy="686.67" r="5" fill="#8b9ad9"/>
<circle cx="1431.6" cy="-40.66" r="5" fill="#8b9ad9"/>
<circle cx="1453.3" cy="230.84" r="5" fill="#8b9ad9"/>
<circle cx="1441.4" cy="357.61" r="5" fill="#8b9ad9"/>
<circle cx="1422" cy="545.06" r="5" fill="#8b9ad9"/>
<circle cx="1430.3" cy="690.14" r="5" fill="#8b9ad9"/>
<circle cx="1578" cy="-79.23" r="5" fill="#8b9ad9"/>
<circle cx="1604.6" cy="76.82" r="5" fill="#8b9ad9"/>
<circle cx="1601.4" cy="215.38" r="5" fill="#8b9ad9"/>
<circle cx="1576.7" cy="346.43" r="5" fill="#8b9ad9"/>
<circle cx="1598.5" cy="553.54" r="5" fill="#8b9ad9"/>
</g>
<defs>
<mask id="b">
<rect width="1440" height="560" fill="#fff"/>
</mask>
<radialGradient id="a">
<stop stop-color="#fff" offset=".1"/>
<stop stop-color="#1735b3" offset=".2"/>
<stop stop-color="rgba(23, 53, 179, 0)" offset="1"/>
</radialGradient>
</defs>
</svg>
